<svg width="100%" height="100%" id="svg" viewBox="0 0 1440 590" xmlns="http://www.w3.org/2000/svg" class="transition duration-300 ease-in-out delay-150"><defs><linearGradient id="gradient" x1="0%" y1="50%" x2="100%" y2="50%"><stop offset="5%" stop-color="#F78DA7"></stop><stop offset="95%" stop-color="#8ED1FC"></stop></linearGradient></defs><path d="M 0,600 C 0,600 0,120 0,120 C 119.67464114832532,99.02392344497608 239.34928229665064,78.04784688995217 331,79 C 422.65071770334936,79.95215311004783 486.27751196172255,102.83253588516746 575,100 C 663.7224880382774,97.16746411483254 777.5406698564593,68.62200956937798 889,77 C 1000.4593301435407,85.37799043062202 1109.5598086124403,130.6794258373206 1201,144 C 1292.4401913875597,157.3205741626794 1366.22009569378,138.6602870813397 1440,120 C 1440,120 1440,600 1440,600 Z" stroke="none" stroke-width="0" fill="url(#gradient)" fill-opacity="0.265" class="transition-all duration-300 ease-in-out delay-150 path-0"></path><defs><linearGradient id="gradient" x1="0%" y1="50%" x2="100%" y2="50%"><stop offset="5%" stop-color="#F78DA7"></stop><stop offset="95%" stop-color="#8ED1FC"></stop></linearGradient></defs><path d="M 0,600 C 0,600 0,240 0,240 C 66.8133971291866,248.16267942583733 133.6267942583732,256.32535885167465 244,266 C 354.3732057416268,275.67464114832535 508.3062200956938,286.8612440191388 622,282 C 735.6937799043062,277.1387559808612 809.1483253588517,256.22966507177034 893,254 C 976.8516746411483,251.7703349282297 1071.1004784688996,268.2200956937799 1164,269 C 1256.8995215311004,269.7799043062201 1348.4497607655503,254.88995215311004 1440,240 C 1440,240 1440,600 1440,600 Z" stroke="none" stroke-width="0" fill="url(#gradient)" fill-opacity="0.4" class="transition-all duration-300 ease-in-out delay-150 path-1"></path><defs><linearGradient id="gradient" x1="0%" y1="50%" x2="100%" y2="50%"><stop offset="5%" stop-color="#F78DA7"></stop><stop offset="95%" stop-color="#8ED1FC"></stop></linearGradient></defs><path d="M 0,600 C 0,600 0,360 0,360 C 70.68899521531102,343.27272727272725 141.37799043062205,326.54545454545456 256,328 C 370.62200956937795,329.45454545454544 529.1770334928229,349.0909090909091 629,371 C 728.8229665071771,392.9090909090909 769.9138755980862,417.0909090909091 858,404 C 946.0861244019138,390.9090909090909 1081.1674641148327,340.54545454545456 1186,327 C 1290.8325358851673,313.45454545454544 1365.4162679425835,336.72727272727275 1440,360 C 1440,360 1440,600 1440,600 Z" stroke="none" stroke-width="0" fill="url(#gradient)" fill-opacity="0.53" class="transition-all duration-300 ease-in-out delay-150 path-2"></path><defs><linearGradient id="gradient" x1="0%" y1="50%" x2="100%" y2="50%"><stop offset="5%" stop-color="#F78DA7"></stop><stop offset="95%" stop-color="#8ED1FC"></stop></linearGradient></defs><path d="M 0,600 C 0,600 0,480 0,480 C 84.1531100478469,488.72727272727275 168.3062200956938,497.4545454545455 261,498 C 353.6937799043062,498.5454545454545 454.92822966507174,490.9090909090908 571,495 C 687.0717703349283,499.0909090909092 817.9808612440191,514.909090909091 914,503 C 1010.0191387559809,491.09090909090907 1071.1483253588517,451.4545454545455 1153,443 C 1234.8516746411483,434.5454545454545 1337.4258373205741,457.27272727272725 1440,480 C 1440,480 1440,600 1440,600 Z" stroke="none" stroke-width="0" fill="url(#gradient)" fill-opacity="1" class="transition-all duration-300 ease-in-out delay-150 path-3"></path></svg>