<svg id="visual" viewBox="0 0 960 540" width="960" height="540" xmlns="http://www.w3.org/2000/svg" xmlns:xlink="http://www.w3.org/1999/xlink" version="1.1"><rect x="0" y="0" width="960" height="540" fill="#001220"></rect><path d="M0 264L22.8 260.3C45.7 256.7 91.3 249.3 137 256.8C182.7 264.3 228.3 286.7 274 295.2C319.7 303.7 365.3 298.3 411.2 296.5C457 294.7 503 296.3 548.8 285.2C594.7 274 640.3 250 686 253.7C731.7 257.3 777.3 288.7 823 306C868.7 323.3 914.3 326.7 937.2 328.3L960 330L960 541L937.2 541C914.3 541 868.7 541 823 541C777.3 541 731.7 541 686 541C640.3 541 594.7 541 548.8 541C503 541 457 541 411.2 541C365.3 541 319.7 541 274 541C228.3 541 182.7 541 137 541C91.3 541 45.7 541 22.8 541L0 541Z" fill="#fa7268"></path><path d="M0 306L22.8 316.7C45.7 327.3 91.3 348.7 137 345.7C182.7 342.7 228.3 315.3 274 311.7C319.7 308 365.3 328 411.2 338.2C457 348.3 503 348.7 548.8 352.2C594.7 355.7 640.3 362.3 686 357C731.7 351.7 777.3 334.3 823 327.3C868.7 320.3 914.3 323.7 937.2 325.3L960 327L960 541L937.2 541C914.3 541 868.7 541 823 541C777.3 541 731.7 541 686 541C640.3 541 594.7 541 548.8 541C503 541 457 541 411.2 541C365.3 541 319.7 541 274 541C228.3 541 182.7 541 137 541C91.3 541 45.7 541 22.8 541L0 541Z" fill="#ef5f67"></path><path d="M0 378L22.8 383.8C45.7 389.7 91.3 401.3 137 405.3C182.7 409.3 228.3 405.7 274 392.5C319.7 379.3 365.3 356.7 411.2 357.5C457 358.3 503 382.7 548.8 393C594.7 403.3 640.3 399.7 686 400.3C731.7 401 777.3 406 823 400.7C868.7 395.3 914.3 379.7 937.2 371.8L960 364L960 541L937.2 541C914.3 541 868.7 541 823 541C777.3 541 731.7 541 686 541C640.3 541 594.7 541 548.8 541C503 541 457 541 411.2 541C365.3 541 319.7 541 274 541C228.3 541 182.7 541 137 541C91.3 541 45.7 541 22.8 541L0 541Z" fill="#e34c67"></path><path d="M0 407L22.8 404.2C45.7 401.3 91.3 395.7 137 393.7C182.7 391.7 228.3 393.3 274 396C319.7 398.7 365.3 402.3 411.2 407.2C457 412 503 418 548.8 427C594.7 436 640.3 448 686 451.2C731.7 454.3 777.3 448.7 823 443.5C868.7 438.3 914.3 433.7 937.2 431.3L960 429L960 541L937.2 541C914.3 541 868.7 541 823 541C777.3 541 731.7 541 686 541C640.3 541 594.7 541 548.8 541C503 541 457 541 411.2 541C365.3 541 319.7 541 274 541C228.3 541 182.7 541 137 541C91.3 541 45.7 541 22.8 541L0 541Z" fill="#d53867"></path><path d="M0 477L22.8 480.3C45.7 483.7 91.3 490.3 137 485.3C182.7 480.3 228.3 463.7 274 455.8C319.7 448 365.3 449 411.2 457.3C457 465.7 503 481.3 548.8 482.3C594.7 483.3 640.3 469.7 686 465.7C731.7 461.7 777.3 467.3 823 471.8C868.7 476.3 914.3 479.7 937.2 481.3L960 483L960 541L937.2 541C914.3 541 868.7 541 823 541C777.3 541 731.7 541 686 541C640.3 541 594.7 541 548.8 541C503 541 457 541 411.2 541C365.3 541 319.7 541 274 541C228.3 541 182.7 541 137 541C91.3 541 45.7 541 22.8 541L0 541Z" fill="#c62368"></path></svg>