<svg id="visual" viewBox="0 0 960 540" width="960" height="540" xmlns="http://www.w3.org/2000/svg" xmlns:xlink="http://www.w3.org/1999/xlink" version="1.1"><rect x="0" y="0" width="960" height="540" fill="#001220"></rect><path d="M0 234L22.8 237.2C45.7 240.3 91.3 246.7 137 240.3C182.7 234 228.3 215 274 207.8C319.7 200.7 365.3 205.3 411.2 207C457 208.7 503 207.3 548.8 216.8C594.7 226.3 640.3 246.7 686 243.5C731.7 240.3 777.3 213.7 823 198.8C868.7 184 914.3 181 937.2 179.5L960 178L960 0L937.2 0C914.3 0 868.7 0 823 0C777.3 0 731.7 0 686 0C640.3 0 594.7 0 548.8 0C503 0 457 0 411.2 0C365.3 0 319.7 0 274 0C228.3 0 182.7 0 137 0C91.3 0 45.7 0 22.8 0L0 0Z" fill="#fa7268"></path><path d="M0 199L22.8 189.8C45.7 180.7 91.3 162.3 137 164.8C182.7 167.3 228.3 190.7 274 193.8C319.7 197 365.3 180 411.2 171.3C457 162.7 503 162.3 548.8 159.3C594.7 156.3 640.3 150.7 686 155.2C731.7 159.7 777.3 174.3 823 180.3C868.7 186.3 914.3 183.7 937.2 182.3L960 181L960 0L937.2 0C914.3 0 868.7 0 823 0C777.3 0 731.7 0 686 0C640.3 0 594.7 0 548.8 0C503 0 457 0 411.2 0C365.3 0 319.7 0 274 0C228.3 0 182.7 0 137 0C91.3 0 45.7 0 22.8 0L0 0Z" fill="#ef5f67"></path><path d="M0 137L22.8 132C45.7 127 91.3 117 137 113.7C182.7 110.3 228.3 113.7 274 125C319.7 136.3 365.3 155.7 411.2 154.8C457 154 503 133 548.8 124.2C594.7 115.3 640.3 118.7 686 118.2C731.7 117.7 777.3 113.3 823 117.8C868.7 122.3 914.3 135.7 937.2 142.3L960 149L960 0L937.2 0C914.3 0 868.7 0 823 0C777.3 0 731.7 0 686 0C640.3 0 594.7 0 548.8 0C503 0 457 0 411.2 0C365.3 0 319.7 0 274 0C228.3 0 182.7 0 137 0C91.3 0 45.7 0 22.8 0L0 0Z" fill="#e34c67"></path><path d="M0 112L22.8 114.5C45.7 117 91.3 122 137 123.7C182.7 125.3 228.3 123.7 274 121.3C319.7 119 365.3 116 411.2 112C457 108 503 103 548.8 95.2C594.7 87.3 640.3 76.7 686 73.8C731.7 71 777.3 76 823 80.7C868.7 85.3 914.3 89.7 937.2 91.8L960 94L960 0L937.2 0C914.3 0 868.7 0 823 0C777.3 0 731.7 0 686 0C640.3 0 594.7 0 548.8 0C503 0 457 0 411.2 0C365.3 0 319.7 0 274 0C228.3 0 182.7 0 137 0C91.3 0 45.7 0 22.8 0L0 0Z" fill="#d53867"></path><path d="M0 52L22.8 49.2C45.7 46.3 91.3 40.7 137 45C182.7 49.3 228.3 63.7 274 70.3C319.7 77 365.3 76 411.2 68.8C457 61.7 503 48.3 548.8 47.5C594.7 46.7 640.3 58.3 686 61.8C731.7 65.3 777.3 60.7 823 56.8C868.7 53 914.3 50 937.2 48.5L960 47L960 0L937.2 0C914.3 0 868.7 0 823 0C777.3 0 731.7 0 686 0C640.3 0 594.7 0 548.8 0C503 0 457 0 411.2 0C365.3 0 319.7 0 274 0C228.3 0 182.7 0 137 0C91.3 0 45.7 0 22.8 0L0 0Z" fill="#c62368"></path></svg>